2.2Hzhigh3min_grf.mot
version=1
nRows=27
nColumns 19
inDegrees=yes
endheader
time	1_ground_force_vx	1_ground_force_vy	1_ground_force_vz	1_ground_force_px	1_ground_force_py	1_ground_force_pz	1_ground_torque_x	1_ground_torque_y	1_ground_torque_z	2_ground_force_vx	2_ground_force_vy	2_ground_force_vz	2_ground_force_px	2_ground_force_py	2_ground_force_pz	2_ground_torque_x	2_ground_torque_y	2_ground_torque_z
            3.751500	           -4.674604	          145.684637	           -6.563333	           -0.215331	            0.006046	           -0.363176	            0.013986	           -0.435879	            0.019637	          -27.654891	          157.945521	          -11.766817	           -0.276434	            0.005487	           -0.698116	            0.056344	           -0.321798	            0.023974
            3.752000	           -4.400148	          145.865939	           -6.792522	           -0.212636	            0.006056	           -0.365533	            0.018310	           -0.606992	            0.028266	          -30.829057	          154.800796	          -11.025783	           -0.274628	            0.005497	           -0.699004	            0.058218	           -0.292329	            0.020821
            3.752500	           -3.247582	          144.593487	           -4.278702	           -0.213733	            0.006060	           -0.366435	            0.013092	           -0.582886	            0.017248	          -33.861862	          151.471297	           -9.956968	           -0.272667	            0.005505	           -0.699413	            0.057071	           -0.255290	            0.016781
            3.753000	           -3.055145	          141.694526	           -0.852331	           -0.216072	            0.006058	           -0.365999	            0.004393	           -0.203740	            0.001226	          -36.896809	          148.695391	           -9.214679	           -0.271994	            0.005510	           -0.700123	            0.050186	           -0.202249	            0.012533
            3.753500	           -4.376827	          138.437101	            2.025977	           -0.214306	            0.006061	           -0.366819	           -0.003298	            0.104326	            0.001527	          -39.184295	          146.475816	           -8.799235	           -0.270813	            0.005512	           -0.699399	            0.068131	           -0.254683	            0.015300
            3.754000	           -7.860349	          134.831311	            1.973309	           -0.210447	            0.006069	           -0.368348	           -0.009898	            0.169786	            0.002485	          -41.573411	          146.465348	           -8.282009	           -0.269154	            0.005518	           -0.699413	            0.085097	           -0.299800	            0.016952
            3.754500	          -11.944847	          135.018456	            0.195828	           -0.211608	            0.006057	           -0.365762	            0.000538	           -0.006084	           -0.000009	          -43.499953	          148.113396	           -7.618286	           -0.267892	            0.005524	           -0.699867	            0.128097	           -0.436159	            0.022434
            3.755000	          -15.161504	          137.013342	           -2.722484	           -0.213969	            0.006035	           -0.360645	            0.062138	           -0.561537	            0.011158	          -46.182656	          151.599567	           -6.759960	           -0.267020	            0.005531	           -0.700881	            0.103965	           -0.341276	            0.015218
            3.755500	          -15.900133	          137.742913	           -4.735232	           -0.211897	            0.006044	           -0.362640	            0.117345	           -1.016564	            0.034947	          -48.726031	          155.453690	           -5.665739	           -0.265144	            0.005538	           -0.700857	            0.076037	           -0.242585	            0.008841
            3.756000	          -14.661545	          138.822977	           -4.320963	           -0.210181	            0.006053	           -0.364707	            0.110123	           -1.042703	            0.032455	          -51.646083	          159.857909	           -4.287819	           -0.264794	            0.005540	           -0.701270	            0.051934	           -0.160749	            0.004312
            3.756500	          -13.189078	          141.156491	           -1.930048	           -0.211665	            0.006047	           -0.363474	            0.056371	           -0.603308	            0.008249	          -54.570156	          165.367367	           -2.999814	           -0.263703	            0.005546	           -0.701785	            0.059400	           -0.180003	            0.003265
            3.757000	          -12.585317	          143.305638	            1.379375	           -0.212391	            0.006046	           -0.363052	            0.004084	           -0.046504	           -0.000448	          -57.026254	          171.061485	           -1.382853	           -0.263196	            0.005546	           -0.701189	            0.069049	           -0.207126	            0.001674
            3.757500	          -14.234159	          146.906897	            2.270192	           -0.210084	            0.006054	           -0.364840	           -0.027161	            0.280321	            0.004332	          -59.396468	          178.964353	            0.617377	           -0.262868	            0.005553	           -0.702934	            0.129752	           -0.390949	           -0.001349
            3.758000	          -17.585503	          150.158307	            0.595742	           -0.209765	            0.006057	           -0.365609	            0.005550	           -0.047388	           -0.000188	          -61.524550	          184.659154	            2.374982	           -0.262820	            0.005553	           -0.702792	            0.131978	           -0.396118	           -0.005095
            3.758500	          -21.215790	          154.137215	           -2.588178	           -0.212048	            0.006039	           -0.361618	            0.074623	           -0.542150	            0.009103	          -63.037607	          188.698826	            4.126415	           -0.263153	            0.005546	           -0.701197	            0.099073	           -0.296568	           -0.006485
            3.759000	          -23.241491	          157.035035	           -5.826574	           -0.210446	            0.006035	           -0.360596	            0.161373	           -1.090342	            0.040456	          -64.650226	          194.394453	            6.165370	           -0.263391	            0.005548	           -0.702056	            0.105624	           -0.317596	           -0.010073
            3.759500	          -23.338698	          160.468519	           -7.783465	           -0.207457	            0.006043	           -0.362270	            0.179948	           -1.237260	            0.060013	          -66.546476	          200.824685	            8.488641	           -0.263143	            0.005554	           -0.703330	            0.077546	           -0.234020	           -0.009892
            3.760000	          -22.786882	          164.250076	           -6.805624	           -0.207302	            0.006048	           -0.363329	            0.122471	           -0.882785	            0.036578	          -68.348420	          207.071616	           10.670431	           -0.263009	            0.005555	           -0.703676	            0.089225	           -0.270320	           -0.013930
            3.760500	          -22.598302	          170.007800	           -4.259269	           -0.209283	            0.006046	           -0.363016	            0.043514	           -0.327357	            0.008201	          -70.103766	          213.320694	           12.289064	           -0.263319	            0.005555	           -0.703867	            0.110971	           -0.337677	           -0.019453
            3.761000	          -23.556238	          176.306689	           -1.845318	           -0.208619	            0.006049	           -0.363595	            0.003843	           -0.028766	            0.000301	          -71.713329	          218.097793	           13.714668	           -0.263579	            0.005553	           -0.703444	            0.110844	           -0.337104	           -0.021198
            3.761500	          -25.572723	          181.711517	           -1.175140	           -0.207778	            0.006059	           -0.365923	            0.037307	           -0.265089	            0.001714	          -72.574973	          223.248726	           14.343489	           -0.263607	            0.005554	           -0.703729	            0.117583	           -0.361699	           -0.023239
            3.762000	          -27.778160	          188.387410	           -2.654325	           -0.208036	            0.006051	           -0.364050	            0.109752	           -0.744324	            0.010487	          -72.971958	          229.505053	           15.304551	           -0.263481	            0.005558	           -0.704716	            0.121920	           -0.383451	           -0.025570
            3.762500	          -29.574637	          195.610274	           -5.553747	           -0.207948	            0.006042	           -0.362127	            0.182443	           -1.206699	            0.034260	          -73.449216	          232.077101	           16.534080	           -0.263815	            0.005555	           -0.704391	            0.078619	           -0.248411	           -0.017698
            3.763000	          -30.959596	          199.951720	           -9.108544	           -0.206493	            0.006048	           -0.363342	            0.211721	           -1.367397	            0.062290	          -73.650730	          236.123488	           17.721817	           -0.264104	            0.005555	           -0.704701	            0.039978	           -0.128170	           -0.009620
            3.763500	          -31.882407	          206.989965	          -10.956215	           -0.206321	            0.006050	           -0.363729	            0.183200	           -1.189390	            0.062956	          -73.146394	          239.253520	           18.389761	           -0.264457	            0.005556	           -0.705222	            0.056151	           -0.183662	           -0.014117
            3.764000	          -32.386356	          214.558076	          -10.234661	           -0.207580	            0.006045	           -0.362723	            0.109583	           -0.725981	            0.034630	          -72.499522	          241.831804	           19.008747	           -0.264201	            0.005557	           -0.705236	            0.045466	           -0.151659	           -0.011921
            3.764500	          -32.978247	          220.317616	           -8.144931	           -0.207945	            0.006048	           -0.363438	            0.069062	           -0.461381	            0.017057	          -71.991903	          244.041436	           19.579549	           -0.265135	            0.005552	           -0.704903	            0.053781	           -0.182309	           -0.014627
